<svg xmlns="http://www.w3.org/2000/svg" version="1.1" xmlns:xlink="http://www.w3.org/1999/xlink" xmlns:svgjs="http://svgjs.dev/svgjs" width="1000" height="1000" viewBox="0 0 1000 1000"><g transform="matrix(1,0,0,1,-0.7846018380096211,-0.7846018380096211)"><svg viewBox="0 0 284 284" data-background-color="#ffffff" preserveAspectRatio="xMidYMid meet" height="1000" width="1000" xmlns="http://www.w3.org/2000/svg" xmlns:xlink="http://www.w3.org/1999/xlink"><g id="tight-bounds" transform="matrix(1,0,0,1,0.22282692199473786,0.22282692199473786)"><svg viewBox="0 0 283.5543461560105 283.5543461560105" height="283.5543461560105" width="283.5543461560105"><g><svg></svg></g><g><svg viewBox="0 0 283.5543461560105 283.5543461560105" height="283.5543461560105" width="283.5543461560105"><g><path d="M0 141.777c0-78.301 63.476-141.777 141.777-141.777 78.301 0 141.777 63.476 141.777 141.777 0 78.301-63.476 141.777-141.777 141.777-78.301 0-141.777-63.476-141.777-141.777zM141.777 280.885c76.827 0 139.108-62.281 139.108-139.108 0-76.827-62.281-139.108-139.108-139.107-76.827 0-139.108 62.281-139.107 139.107 0 76.827 62.281 139.108 139.107 139.108z" data-fill-palette-color="tertiary" fill="#ba3b0a" stroke="transparent"></path><ellipse rx="136.10608615488505" ry="136.10608615488505" cx="141.77717307800526" cy="141.77717307800526" fill="#ba3b0a" stroke="transparent" stroke-width="0" fill-opacity="1" data-fill-palette-color="tertiary"></ellipse></g><g transform="matrix(1,0,0,1,56.16268294765047,100.84293184533607)"><svg viewBox="0 0 171.2289802607096 81.86848246533839" height="81.86848246533839" width="171.2289802607096"><g><svg viewBox="0 0 171.2289802607096 81.86848246533839" height="81.86848246533839" width="171.2289802607096"><g><svg viewBox="0 0 171.2289802607096 81.86848246533839" height="81.86848246533839" width="171.2289802607096"><g><path d="M0 81.868v-81.868h171.229v81.868z" fill="#ba3b0a" stroke="transparent" stroke-width="0" rx="0%" data-fill-palette-color="tertiary"></path><path d="M3.494 78.374v-74.88h164.241v74.88z" fill="#ffffff" stroke="transparent" stroke-width="0" rx="0%" data-fill-palette-color="quaternary"></path><path d="M10.482 71.386v-60.904h150.265v60.904z" fill="#ba3b0a" stroke="transparent" stroke-width="0" data-fill-palette-color="tertiary"></path></g><g transform="matrix(1,0,0,1,20.964730483223757,20.964730483223757)" id="textblocktransform"><svg viewBox="0 0 129.29951929426207 39.93902149889088" height="39.93902149889088" width="129.29951929426207" id="textblock"><g><svg viewBox="0 0 129.29951929426207 39.93902149889088" height="39.93902149889088" width="129.29951929426207"><g transform="matrix(1,0,0,1,0,0)"><svg width="129.29951929426207" viewBox="-0.15000000596046448 -38.790000915527344 128.82998657226562 39.790000915527344" height="39.93902149889088" data-palette-color="#ffffff"><path d="M24.1-16.02L24.1-8.84Q24.63-7.35 25.88-6.86L25.88-6.86Q24.9-6.54 24.05-5.71 23.19-4.88 23.12-4.64L23.12-4.64Q22.34-2.22 18.87-0.68L18.87-0.68Q15.67 0.73 12.89 0.73 10.11 0.73 8.19 0.04 6.27-0.66 4.81-1.9L4.81-1.9Q1.59-4.61 1.59-8.54L1.59-8.54Q1.59-11.13-0.15-12.28L-0.15-12.28Q0.59-13.48 1.9-13.48L1.9-13.48Q2.64-13.48 3.32-13.06L3.32-13.06Q4.47-14.53 7.67-14.53L7.67-14.53Q8.2-14.53 8.42-14.26L8.42-14.26Q8.11-13.89 8.29-13.2 8.47-12.5 8.47-12.33L8.47-12.33 8.47-12.04Q8.47-11.91 8.52-11.79L8.52-11.79Q8.76-11.84 9.03-11.84 9.3-11.84 9.7-11.69 10.11-11.55 10.42-11.28L10.42-11.28Q11.16-10.67 11.16-9.84L11.16-9.84Q11.16-9.62 11.08-9.45L11.08-9.45Q10.64-9.62 10.13-9.62 9.62-9.62 9.11-9.45 8.59-9.28 8.15-8.89L8.15-8.89Q7.18-8.03 7.18-6.4L7.18-6.4Q7.18-4.81 8.4-3.66L8.4-3.66Q9.64-2.54 11.61-2.54 13.57-2.54 15.11-3.69L15.11-3.69 15.11-16.02Q15.11-17.14 14.65-17.68L14.65-17.68Q13.92-18.58 12.13-19.46L12.13-19.46Q13.79-20.21 14.28-20.8L14.28-20.8Q15.11-21.75 15.11-22.95L15.11-22.95 15.11-33.25Q14.28-35.13 12.11-35.13L12.11-35.13Q11.28-35.13 10.74-34.72L10.74-34.72Q10.47-35.08 10.47-35.56 10.47-36.04 10.75-36.45 11.04-36.87 11.52-37.16L11.52-37.16Q12.65-37.84 14.1-37.84 15.55-37.84 16.77-37.04L16.77-37.04Q18.04-37.84 19.6-37.84 21.17-37.84 22.44-37.04L22.44-37.04Q23.66-37.84 24.73-37.84 25.81-37.84 26.49-37.66 27.17-37.48 27.69-37.16L27.69-37.16Q28.74-36.52 28.74-35.57L28.74-35.57Q28.74-35.08 28.47-34.72L28.47-34.72Q27.93-35.13 27.1-35.13L27.1-35.13Q24.93-35.13 24.1-33.25L24.1-33.25 24.1-22.95Q24.1-21.75 24.61-21.17L24.61-21.17Q25.42-20.21 27.08-19.46L27.08-19.46Q25.29-18.58 24.8-18.02L24.8-18.02Q24.1-17.14 24.1-16.02L24.1-16.02ZM17.46-9.64L17.46-6.47Q18.68-6.93 18.8-9.67L18.8-9.67Q18.95-12.4 18.95-17.24 18.95-22.07 18.93-23.67 18.92-25.27 18.9-26.25L18.9-26.25Q18.82-29.13 18.35-29.72 17.87-30.32 17.46-30.52L17.46-30.52Q17.46-22.02 17.16-20.85L17.16-20.85Q16.82-19.87 15.5-19.46L15.5-19.46Q16.97-18.95 17.16-18.21L17.16-18.21Q17.46-17.04 17.46-9.64L17.46-9.64ZM38.69-0.95L38.69-0.95Q36.74 1 34.98 1L34.98 1Q33.86 1 33.47 0.17L33.47 0.17Q34.03-0.51 34.03-1.88L34.03-1.88 34.03-2.25Q34.03-2.39 34.01-2.51L34.01-2.51Q32.79-3.61 32.79-5.11 32.79-6.62 34.2-8.18L34.2-8.18Q33.79-9.01 33.79-9.95 33.79-10.89 34.07-11.71 34.35-12.52 34.84-13.13L34.84-13.13Q35.86-14.48 36.85-14.48 37.84-14.48 38.25-13.7L38.25-13.7Q37.38-12.77 37.38-10.79 37.38-8.81 37.95-7.35 38.52-5.88 39.57-4.83L39.57-4.83Q41.82-2.54 45.31-2.54L45.31-2.54Q47.65-2.54 49.29-3.88L49.29-3.88Q51.05-5.32 51.05-7.81L51.05-7.81Q51.05-9.57 50.22-10.67L50.22-10.67Q48.92-12.38 46.16-14.28L46.16-14.28Q44.04-15.77 42.77-15.77L42.77-15.77Q41.48-15.77 39.91-14.72L39.91-14.72Q40.33-15.97 40.33-17.04L40.33-17.04Q40.33-17.29 39.87-17.68L39.87-17.68 38.96-18.48Q34.69-22.41 33.91-25.78L33.91-25.78Q33.64-26.95 33.64-28.72 33.64-30.49 34.51-32.31 35.37-34.13 36.89-35.4L36.89-35.4Q40.04-38.09 44.89-38.09L44.89-38.09Q47.85-38.09 50.31-37.13L50.31-37.13Q51.36-36.72 52.71-36.72L52.71-36.72Q53.27-36.72 53.72-36.78 54.17-36.84 54.51-37.28L54.51-37.28Q54.83-37.74 54.83-38.11 54.83-38.48 54.73-38.72L54.73-38.72Q54.9-38.79 55.21-38.79 55.52-38.79 55.88-38.59 56.25-38.38 56.54-38.01L56.54-38.01Q57.2-37.18 57.2-36.15 57.2-35.11 56.61-34.57L56.61-34.57Q57.44-33.84 57.44-32.3L57.44-32.3Q57.44-30.79 56.42-29.76L56.42-29.76Q56.61-29.1 56.61-28.58 56.61-28.05 56.43-27.58 56.25-27.1 55.93-26.76L55.93-26.76Q55.22-26 54.59-26L54.59-26Q53.59-26 52.9-26.34L52.9-26.34Q53.32-27.32 53.32-28.44 53.32-29.57 52.82-30.75 52.32-31.93 51.41-32.81L51.41-32.81Q49.51-34.62 46.43-34.62L46.43-34.62Q44.48-34.62 43.23-33.42L43.23-33.42Q42.06-32.3 42.06-30.71L42.06-30.71Q42.06-29.52 42.65-28.71L42.65-28.71Q43.67-27.32 45.9-25.83L45.9-25.83 47.07-25.05Q48.04-24.44 48.39-24.44 48.73-24.44 49.07-24.51 49.41-24.58 49.83-24.71L49.83-24.71Q50.71-25 51.54-25.54L51.54-25.54 51.22-24.17Q51.07-23.49 51.07-23.17L51.07-23.17Q51.07-22.66 51.58-22.24L51.58-22.24Q56.15-18.29 57.69-15.63L57.69-15.63Q59.03-13.31 59.03-10.62 59.03-7.93 58.15-6.01 57.27-4.08 55.59-2.59L55.59-2.59Q51.88 0.73 45.94 0.73L45.94 0.73Q41.77 0.73 38.69-0.95ZM37.03-30.52L37.03-30.52Q36.11-30.13 36.11-28.49L36.11-28.49Q36.11-25.15 40.57-21.14L40.57-21.14 42.04-19.82Q42.8-19.14 42.71-18.77 42.62-18.41 42.56-18.19 42.5-17.97 42.43-17.77 42.36-17.58 42.33-17.48L42.33-17.48Q43.19-17.99 43.72-17.99L43.72-17.99Q44.8-17.99 45.75-17.41L45.75-17.41Q50.46-14.48 52.15-12.18L52.15-12.18Q53.37-10.5 53.42-7.98L53.42-7.98Q53.42-7.08 53.29-6.47L53.29-6.47Q54.59-7.3 54.59-9.11L54.59-9.11Q54.59-10.86 54.11-11.82 53.64-12.77 53-13.51 52.37-14.26 51.35-15.14 50.34-16.02 48.85-17.04L48.85-17.04 45.38-19.41Q41.11-22.22 38.89-25.34L38.89-25.34Q36.94-28.1 37.03-30.52ZM69.33-0.95L69.33-0.95Q67.38 1 65.62 1L65.62 1Q64.5 1 64.11 0.17L64.11 0.17Q64.67-0.51 64.67-1.88L64.67-1.88 64.67-2.25Q64.67-2.39 64.64-2.51L64.64-2.51Q63.42-3.61 63.42-5.11 63.42-6.62 64.84-8.18L64.84-8.18Q64.42-9.01 64.42-9.95 64.42-10.89 64.7-11.71 64.99-12.52 65.47-13.13L65.47-13.13Q66.5-14.48 67.49-14.48 68.48-14.48 68.89-13.7L68.89-13.7Q68.01-12.77 68.01-10.79 68.01-8.81 68.59-7.35 69.16-5.88 70.21-4.83L70.21-4.83Q72.46-2.54 75.95-2.54L75.95-2.54Q78.29-2.54 79.93-3.88L79.93-3.88Q81.68-5.32 81.68-7.81L81.68-7.81Q81.68-9.57 80.85-10.67L80.85-10.67Q79.56-12.38 76.8-14.28L76.8-14.28Q74.68-15.77 73.41-15.77L73.41-15.77Q72.11-15.77 70.55-14.72L70.55-14.72Q70.97-15.97 70.97-17.04L70.97-17.04Q70.97-17.29 70.5-17.68L70.5-17.68 69.6-18.48Q65.33-22.41 64.55-25.78L64.55-25.78Q64.28-26.95 64.28-28.72 64.28-30.49 65.14-32.31 66.01-34.13 67.52-35.4L67.52-35.4Q70.67-38.09 75.53-38.09L75.53-38.09Q78.49-38.09 80.95-37.13L80.95-37.13Q82-36.72 83.34-36.72L83.34-36.72Q83.91-36.72 84.36-36.78 84.81-36.84 85.15-37.28L85.15-37.28Q85.47-37.74 85.47-38.11 85.47-38.48 85.37-38.72L85.37-38.72Q85.54-38.79 85.85-38.79 86.15-38.79 86.52-38.59 86.88-38.38 87.18-38.01L87.18-38.01Q87.84-37.18 87.84-36.15 87.84-35.11 87.25-34.57L87.25-34.57Q88.08-33.84 88.08-32.3L88.08-32.3Q88.08-30.79 87.06-29.76L87.06-29.76Q87.25-29.1 87.25-28.58 87.25-28.05 87.07-27.58 86.88-27.1 86.57-26.76L86.57-26.76Q85.86-26 85.22-26L85.22-26Q84.22-26 83.54-26.34L83.54-26.34Q83.95-27.32 83.95-28.44 83.95-29.57 83.45-30.75 82.95-31.93 82.05-32.81L82.05-32.81Q80.15-34.62 77.07-34.62L77.07-34.62Q75.12-34.62 73.87-33.42L73.87-33.42Q72.7-32.3 72.7-30.71L72.7-30.71Q72.7-29.52 73.29-28.71L73.29-28.71Q74.31-27.32 76.53-25.83L76.53-25.83 77.7-25.05Q78.68-24.44 79.02-24.44 79.37-24.44 79.71-24.51 80.05-24.58 80.46-24.71L80.46-24.71Q81.34-25 82.17-25.54L82.17-25.54 81.86-24.17Q81.71-23.49 81.71-23.17L81.71-23.17Q81.71-22.66 82.22-22.24L82.22-22.24Q86.79-18.29 88.33-15.63L88.33-15.63Q89.67-13.31 89.67-10.62 89.67-7.93 88.79-6.01 87.91-4.08 86.23-2.59L86.23-2.59Q82.51 0.73 76.58 0.73L76.58 0.73Q72.41 0.73 69.33-0.95ZM67.67-30.52L67.67-30.52Q66.74-30.13 66.74-28.49L66.74-28.49Q66.74-25.15 71.21-21.14L71.21-21.14 72.68-19.82Q73.43-19.14 73.35-18.77 73.26-18.41 73.2-18.19 73.14-17.97 73.07-17.77 72.99-17.58 72.97-17.48L72.97-17.48Q73.82-17.99 74.36-17.99L74.36-17.99Q75.43-17.99 76.39-17.41L76.39-17.41Q81.1-14.48 82.78-12.18L82.78-12.18Q84-10.5 84.05-7.98L84.05-7.98Q84.05-7.08 83.93-6.47L83.93-6.47Q85.22-7.3 85.22-9.11L85.22-9.11Q85.22-10.86 84.75-11.82 84.27-12.77 83.64-13.51 83-14.26 81.99-15.14 80.98-16.02 79.49-17.04L79.49-17.04 76.02-19.41Q71.75-22.22 69.53-25.34L69.53-25.34Q67.57-28.1 67.67-30.52ZM94.28-0.17L94.28-0.17Q93.38 0.49 92.22 0.49 91.06 0.49 90.36-0.11 89.67-0.71 89.67-1.49 89.67-2.27 89.91-2.64L89.91-2.64Q90.62-2.22 91.66-2.22 92.69-2.22 93.22-2.5 93.74-2.78 94.23-3.27L94.23-3.27 97.7-13.55 98.19-15.23Q98.41-15.99 98.41-16.63L98.41-16.63Q98.41-18.85 96.31-19.46L96.31-19.46Q98.23-20.19 99.02-21.04L99.02-21.04Q100.24-22.39 100.94-24.58L100.94-24.58 103.63-33.59Q102.85-34.64 101.77-34.64 100.7-34.64 99.77-34.18L99.77-34.18Q99.53-34.62 99.53-35.17 99.53-35.72 99.76-36.21 99.99-36.69 100.41-37.06L100.41-37.06Q101.34-37.84 103.04-37.84 104.75-37.84 105.95-36.82L105.95-36.82Q107.17-37.84 108.99-37.84 110.81-37.84 111.88-36.87L111.88-36.87Q113.44-37.84 115.06-37.84 116.67-37.84 117.56-37.23 118.45-36.62 118.45-35.57L118.45-35.57Q118.45-35.08 118.16-34.72L118.16-34.72Q117.6-35.13 116.84-35.13L116.84-35.13Q115.2-35.13 114.71-32.91L114.71-32.91 117.84-22.92Q118.43-21.04 120.77-20L120.77-20Q121.43-19.7 122.11-19.46L122.11-19.46Q119.67-18.65 119.67-17.04L119.67-17.04Q119.67-16.43 119.87-15.97L119.87-15.97 124.53-3.47Q125.6-2.34 126.7-2.34 127.8-2.34 128.41-2.76L128.41-2.76Q128.68-2.56 128.68-2.03 128.68-1.49 128.51-1.04 128.34-0.59 127.97-0.24L127.97-0.24Q127.19 0.49 125.68 0.49 124.16 0.49 123.04-0.34L123.04-0.34Q121.77 0.49 120.17 0.49 118.57 0.49 117.42-0.32L117.42-0.32Q116.33 0.49 114.84 0.49 113.35 0.49 112.37-0.13 111.39-0.76 111.35-1.9L111.35-1.9Q111.35-2.59 111.61-2.76L111.61-2.76Q112.27-2.34 112.96-2.34L112.96-2.34Q114.4-2.34 114.98-2.93L114.98-2.93 113.13-9.16 99.92-9.16 98.31-3.76Q99.31-2.22 100.74-2.22 102.17-2.22 102.87-2.64L102.87-2.64Q103.14-2.2 103.14-1.43 103.14-0.66 102.39-0.09 101.63 0.49 100.43 0.49 99.24 0.49 98.23-0.12L98.23-0.12Q97.36 0.49 96.22 0.49 95.09 0.49 94.28-0.17ZM100.9-12.45L112.13-12.45 106.46-31.27 100.9-12.45ZM115.52-10.03L116.79-6.47Q117.23-6.47 117.23-7.45L117.23-7.45Q117.23-9.16 116.72-10.77L116.72-10.77 115.79-13.62Q114.81-16.85 114.81-17.68L114.81-17.68Q114.79-19.04 116.01-19.48L116.01-19.48Q114.32-19.82 113.96-20.53L113.96-20.53Q113.79-20.83 113.68-21 113.57-21.17 113.46-21.4 113.35-21.63 113.2-22 113.05-22.36 112.81-23.05L112.81-23.05 111.3-27.61Q110.76-29.32 109.71-30.2L109.71-30.2Q109.39-30.47 109.12-30.52L109.12-30.52Q110.76-24.61 111.27-22.95L111.27-22.95Q114.81-12.06 115.52-10.03L115.52-10.03ZM124.04-4.13L123.99-4.27 124.04-4.13Z" opacity="1" transform="matrix(1,0,0,1,0,0)" fill="#ffffff" class="wordmark-text-0" data-fill-palette-color="quaternary" id="text-0"></path></svg></g></svg></g></svg></g></svg></g><g></g></svg></g></svg></g></svg></g><defs></defs></svg><rect width="283.5543461560105" height="283.5543461560105" fill="none" stroke="none" visibility="hidden"></rect></g></svg></g></svg>